PathFileType	4	(X/Y/Z)	C:\Users\ebm\Documents\Erivelton\Erivelton\propulsion1.trc
DataRate	CameraRate	NumFrames	NumMarkers	Units	OrigDataRate	OrigDataStartFrame	OrigNumFrames
150.00	150.00	      8	28	mm	150.00	592	      1182
Frame#	Time	IJ			PX			C7			T8			RAC			RAS			RPS			RAI			RPI			RLE			RME			RRS			RUS			R3M			R5M			LAC			LAS			LPS			LAI			LPI			LLE			LME			LRS			LUS			L3M			L5M			RW			LW			V_mid_elbow_r			V_mid_elbow_l			V_mid_wrist_r			V_mid_wrist_l			V_mid_trunk_low			V_mid_trunk_upp			
		X1	Y1	Z1	X2	Y2	Z2	X3	Y3	Z3	X4	Y4	Z4	X5	Y5	Z5	X6	Y6	Z6	X7	Y7	Z7	X8	Y8	Z8	X9	Y9	Z9	X10	Y10	Z10	X11	Y11	Z11	X12	Y12	Z12	X13	Y13	Z13	X14	Y14	Z14	X15	Y15	Z15	X16	Y16	Z16	X17	Y17	Z17	X18	Y18	Z18	X19	Y19	Z19	X20	Y20	Z20	X21	Y21	Z21	X22	Y22	Z22	X23	Y23	Z23	X24	Y24	Z24	X25	Y25	Z25	X26	Y26	Z26	X27	Y27	Z27	X28	Y28	Z28	

592	3.940	1547.11316	1020.23431	40.14737	1556.77502	849.28754	41.86280	1423.67090	1123.99634	41.35460	1332.74927	931.30475	45.97874	1473.68494	1065.01038	233.45592	1430.60547	905.39917	305.81555	1395.52759	942.52533	321.45953	1381.38245	846.72528	333.70972	1350.85938	883.98511	349.04019	1293.22278	821.89673	377.67545	1260.37769	799.26416	300.86209	1453.15222	614.20074	318.51846	1427.98999	599.33728	370.21448	1513.65869	561.57697	365.92566	1480.87134	542.71631	377.75912	1434.69971	1056.64050	-152.76393	1385.27856	920.33618	-240.38994	1341.24744	937.78925	-229.04205	1354.67957	856.12000	-281.41760	1304.15527	874.29254	-269.45081	1302.95117	802.57318	-307.10181	1267.30420	775.94000	-234.10754	1467.26245	605.11438	-235.84154	1446.27356	575.56818	-298.20258	1536.76331	557.10114	-298.97083	1502.74084	531.34723	-308.45416	1507.43152	304.36786	349.51096	1506.85254	301.12067	-278.06873	
593	3.947	1555.02112	1019.76239	40.14333	1564.05261	848.90558	41.95156	1431.74548	1123.93640	41.48799	1340.39832	931.53674	45.91069	1482.31226	1064.56165	233.73010	1440.01672	904.74011	306.40924	1405.03125	941.78796	322.21204	1391.30847	845.98853	334.85706	1360.82471	883.21576	350.52551	1303.63354	820.67554	378.99878	1270.35144	797.76752	302.71484	1467.68091	615.73621	319.52194	1441.90308	600.76324	370.58670	1527.82715	560.93945	366.22720	1494.63269	542.82172	377.97482	1443.68054	1056.13635	-153.15239	1395.63928	919.62042	-241.47023	1351.39282	936.80029	-230.57706	1365.97302	855.35907	-282.99805	1315.19409	873.15491	-271.53403	1314.90088	801.44128	-309.05811	1278.08618	774.55457	-236.59920	1481.81848	606.92188	-236.89561	1461.05750	576.66840	-298.53372	1550.84607	556.08636	-298.97125	1516.27283	531.26776	-308.36105	1514.93579	304.21783	349.37640	1514.38867	301.14584	-278.04779	
594	3.953	1562.88147	1019.40118	40.33854	1571.32007	848.60217	41.93987	1439.76355	1123.80420	41.59240	1348.10339	931.78741	45.89825	1490.89600	1064.20081	234.03674	1449.59790	904.22595	306.88269	1414.69348	941.09082	323.43021	1401.45740	845.25397	335.91776	1371.00830	882.31750	351.97430	1314.35938	819.28333	380.71127	1280.59485	796.20441	304.49643	1481.97034	617.02881	320.48947	1456.13306	602.09088	371.72287	1541.79333	560.36621	366.56192	1508.30457	542.67493	378.64798	1452.61523	1055.73950	-153.57970	1406.14282	918.89667	-242.62112	1361.64392	935.84851	-232.07841	1377.38904	854.62225	-284.59515	1326.34753	872.01563	-273.62323	1326.87024	800.36304	-311.00412	1290.02869	772.95813	-238.96117	1497.29749	607.96454	-237.13402	1475.68408	577.92706	-299.15314	1564.87402	555.31152	-299.04791	1529.63892	531.26282	-308.44003	1522.26257	304.31140	349.54166	1521.73816	301.22971	-278.01819	
595	3.960	1570.85486	1019.02039	40.54436	1578.69238	848.29077	42.02294	1447.84521	1123.74011	41.65376	1355.83899	932.03534	45.87387	1499.33423	1063.93152	234.19896	1459.30115	903.66858	307.26547	1424.31018	940.57275	324.23001	1411.76648	844.45673	336.79358	1381.39526	881.34851	353.32523	1325.15356	817.92474	382.25861	1291.07007	794.58246	306.18655	1496.31384	618.16699	321.54303	1470.09583	603.25879	372.11093	1555.72852	559.33838	366.77664	1521.84814	542.48865	379.07068	1461.50720	1055.43909	-153.90620	1416.66296	918.18121	-243.66949	1371.97583	934.87885	-233.72853	1389.06360	853.81842	-285.90506	1337.74646	870.83337	-275.66956	1339.13000	799.21918	-312.77551	1301.58118	771.43445	-241.29779	1511.84521	609.00409	-237.65787	1490.24060	578.78650	-299.45120	1578.80566	554.55261	-299.15240	1543.05530	531.26611	-308.67749	1529.59473	304.24939	349.46298	1529.11011	301.28732	-278.01248	
596	3.967	1578.96265	1018.75476	40.53994	1586.24927	848.09009	42.14639	1455.94910	1123.70691	41.73802	1363.66357	932.34137	45.84169	1507.81165	1063.77771	234.38881	1469.08350	903.08203	307.57227	1434.23157	939.73181	325.01349	1422.25183	843.48962	337.52863	1391.92969	880.31281	354.69412	1336.11206	816.42194	383.52194	1301.80359	792.77179	307.89206	1510.59253	619.18774	322.69177	1484.00842	604.04254	373.22943	1569.44153	558.24994	367.19464	1535.18604	542.17090	379.29919	1470.30750	1055.11377	-154.18607	1427.35986	917.40320	-244.73317	1382.49939	933.88495	-235.31351	1400.84546	852.90417	-287.26404	1349.24744	869.44720	-277.73367	1351.40466	798.01489	-314.54639	1313.35645	769.79053	-243.53760	1526.46680	609.80188	-238.10367	1504.72852	579.30676	-299.79056	1592.68640	553.75592	-299.25278	1556.37952	531.11212	-308.70309	1536.88171	304.22205	349.49802	1536.55408	301.34528	-277.98386	
597	3.973	1586.92834	1018.71381	40.52824	1593.85498	847.93134	42.26199	1464.04163	1123.73059	41.76108	1371.48962	932.65259	45.83901	1516.17078	1063.62219	234.54100	1478.96704	902.43585	307.80075	1444.01208	938.73450	325.70221	1432.92651	842.48657	338.27328	1402.60022	878.96844	355.84399	1347.25256	814.94867	385.01212	1312.70313	790.85297	309.46759	1525.16736	620.12463	324.19043	1497.83923	604.77930	374.07101	1583.20447	557.03851	367.20529	1548.49377	541.79346	379.63046	1479.01025	1054.96680	-154.41054	1438.21094	916.52124	-245.65210	1393.07202	932.72565	-237.02606	1412.73279	851.36786	-287.77377	1360.97534	868.01294	-279.70880	1364.00720	796.57483	-316.06433	1325.29919	768.06250	-245.62961	1541.10559	610.38348	-238.44768	1519.00671	579.61359	-299.93207	1606.70715	552.71112	-299.28815	1569.81445	530.69592	-308.65134	1544.09058	304.23822	349.42911	1543.83386	301.39987	-278.03616	
598	3.980	1595.01074	1018.77216	40.72918	1601.62549	847.76978	42.30066	1472.18518	1123.73254	41.82742	1379.32874	932.99756	45.88889	1524.50354	1063.51038	234.62047	1488.95935	901.72803	307.92194	1454.06555	937.67047	326.37857	1443.73206	841.37506	338.84360	1413.42395	877.57422	356.94699	1358.55115	813.26483	386.26160	1323.81421	788.77795	311.04395	1539.26624	620.71765	325.03244	1511.62878	605.38068	374.80389	1596.88513	555.73260	367.50839	1561.80066	541.31409	379.94147	1487.72742	1054.77222	-154.51733	1449.10266	915.50842	-246.65305	1403.88586	931.58105	-238.88089	1424.92798	849.90808	-288.90756	1372.92456	866.31573	-281.78961	1376.74316	795.30756	-317.81894	1337.23352	766.21808	-247.74922	1554.99133	610.59375	-238.88066	1533.27039	579.64661	-300.13953	1620.49927	551.31714	-299.31454	1583.13098	530.00568	-308.51154	1551.80139	304.00012	349.64063	1551.29468	301.56509	-278.11993	
599	3.987	1603.12939	1018.75952	40.89764	1609.45569	847.74304	42.45707	1480.34656	1123.85352	41.82928	1387.20117	933.38617	45.90240	1532.91345	1063.42810	234.74423	1498.94849	900.99530	308.06644	1464.11340	936.52435	327.51419	1454.74451	840.06384	339.22690	1424.31482	875.95514	357.93326	1370.05469	811.37891	387.46527	1335.03870	786.57660	312.46426	1553.58813	621.06696	325.93396	1525.59338	605.82355	375.39966	1610.43359	554.40436	367.77689	1575.03430	540.89398	380.31198	1496.29431	1054.66235	-154.67667	1460.23804	914.32031	-247.59184	1414.69824	930.26245	-240.73424	1437.21851	848.31085	-289.77753	1385.06372	864.50806	-283.72568	1389.56909	793.51166	-319.17978	1349.81995	764.59790	-249.42241	1570.03589	610.77667	-238.96361	1547.44238	579.30774	-300.17313	1634.11255	549.60071	-299.23572	1596.11707	529.05341	-308.52591	1559.14551	303.98969	349.17947	1558.77344	301.55667	-278.04175	
